#N canvas 553 122 450 291 12;
#X obj 68 31 oscparse;
#X obj 68 7 netreceive -u -b 5009;
#X obj 99 238 clone test-user 10;
#X obj 99 198 list;
#X obj 307 263 print;
#X obj 95 174 f;
#X obj 311 241 spigot;
#X obj 375 219 tgl 15 0 empty empty empty 17 7 0 10 -262144 -1 -1 0
1;
#X obj 68 52 list trim;
#X obj 65 76 route cpd;
#X obj 63 116 list split 2;
#X obj 63 140 list split 1;
#X msg 248 178 vis 3 1;
#X floatatom 297 57 5 0 0 0 cant_usuarios - -;
#X obj 299 136 print;
#X obj 367 92 tgl 15 0 empty empty empty 17 7 0 10 -262144 -1 -1 0
1;
#X obj 303 114 spigot 1;
#X connect 0 0 8 0;
#X connect 0 0 16 0;
#X connect 1 0 0 0;
#X connect 3 0 2 0;
#X connect 3 0 6 0;
#X connect 5 0 3 0;
#X connect 6 0 4 0;
#X connect 7 0 6 1;
#X connect 8 0 9 0;
#X connect 9 0 10 0;
#X connect 10 0 11 0;
#X connect 10 1 3 1;
#X connect 11 0 13 0;
#X connect 11 1 5 0;
#X connect 12 0 2 0;
#X connect 15 0 16 1;
#X connect 16 0 14 0;
