#N canvas 2028 85 544 483 12;
#X obj 68 31 oscparse;
#X obj 68 7 netreceive -u -b 5009;
#X obj 104 248 list;
#X obj 67 170 f;
#X obj 328 282 spigot;
#X obj 392 260 tgl 15 0 empty empty empty 17 7 0 10 -262144 -1 -1 1
1;
#X obj 68 52 list trim;
#X obj 401 144 tgl 15 0 empty empty empty 17 7 0 10 -262144 -1 -1 1
1;
#X obj 336 166 spigot 1;
#X obj 84 135 list split 1;
#X obj 64 198 sel -1;
#X obj 38 200 bng 15 250 50 0 empty empty empty 17 7 0 10 -262144 -1
-1;
#X obj 81 419 dac~;
#X floatatom 206 441 5 0 0 0 - - -;
#X obj 206 417 env~;
#X floatatom 165 438 5 0 0 0 - - -;
#X obj 165 414 env~;
#X obj 81 362 clone test-user 100;
#X text 28 170 oscid;
#X msg 152 176 0 xyz 0 0 0;
#X msg 153 197 0 act 0 0 0;
#X obj 332 188 print full;
#X obj 324 304 print parsed;
#X msg 154 220 0 onoff 0|1;
#X obj 55 80 route cpd;
#X connect 0 0 6 0;
#X connect 0 0 8 0;
#X connect 1 0 0 0;
#X connect 2 0 4 0;
#X connect 2 0 17 0;
#X connect 3 0 10 0;
#X connect 4 0 22 0;
#X connect 5 0 4 1;
#X connect 6 0 24 0;
#X connect 7 0 8 1;
#X connect 8 0 21 0;
#X connect 9 0 3 0;
#X connect 9 1 2 1;
#X connect 10 0 11 0;
#X connect 10 1 2 0;
#X connect 14 0 13 0;
#X connect 16 0 15 0;
#X connect 17 0 12 0;
#X connect 17 0 16 0;
#X connect 17 1 12 1;
#X connect 17 1 14 0;
#X connect 24 0 9 0;
