#N canvas 962 75 450 291 12;
#X obj 68 31 oscparse;
#X obj 68 7 netreceive -u -b 5009;
#X obj 99 238 clone test-user 10;
#X obj 127 187 list;
#X obj 323 222 print;
#X obj 84 135 f;
#X obj 327 200 spigot;
#X obj 391 178 tgl 15 0 empty empty empty 17 7 0 10 -262144 -1 -1 1
1;
#X obj 68 52 list trim;
#X floatatom 297 57 5 0 0 0 cant_usuarios - -;
#X obj 299 136 print;
#X obj 367 92 tgl 15 0 empty empty empty 17 7 0 10 -262144 -1 -1 0
1;
#X obj 303 114 spigot 1;
#X obj 90 106 list split 1;
#X obj 65 76 route cpd cpd-meta;
#X obj 65 160 sel -1;
#X obj 65 184 bng 15 250 50 0 empty empty empty 17 7 0 10 -262144 -1
-1;
#X obj 99 262 dac~;
#X floatatom 247 258 5 0 0 0 - - -;
#X obj 247 234 env~;
#X floatatom 52 247 5 0 0 0 - - -;
#X obj 52 223 env~;
#X msg 248 178 vis 2 1;
#X msg 197 141 all xyz 0 0 0;
#X connect 0 0 8 0;
#X connect 0 0 12 0;
#X connect 1 0 0 0;
#X connect 2 0 17 0;
#X connect 2 0 21 0;
#X connect 2 1 17 1;
#X connect 2 1 19 0;
#X connect 3 0 6 0;
#X connect 3 0 2 0;
#X connect 5 0 15 0;
#X connect 6 0 4 0;
#X connect 7 0 6 1;
#X connect 8 0 14 0;
#X connect 11 0 12 1;
#X connect 12 0 10 0;
#X connect 13 0 5 0;
#X connect 13 1 3 1;
#X connect 14 0 13 0;
#X connect 15 0 16 0;
#X connect 15 1 3 0;
#X connect 19 0 18 0;
#X connect 21 0 20 0;
#X connect 22 0 2 0;
#X connect 23 0 2 0;
