#N canvas 2145 108 572 494 12;
#X obj 68 31 oscparse;
#X obj 68 7 netreceive -u -b 5009;
#X obj 79 220 list;
#X obj 42 142 f;
#X obj 328 282 spigot;
#X obj 392 260 tgl 15 0 empty empty empty 17 7 0 10 -262144 -1 -1 0
1;
#X obj 68 52 list trim;
#X floatatom 297 57 5 0 0 0 cant_usuarios - -;
#X obj 362 154 tgl 15 0 empty empty empty 17 7 0 10 -262144 -1 -1 0
1;
#X obj 297 176 spigot 1;
#X obj 50 112 list split 1;
#X obj 55 80 route cpd cpd-meta;
#X obj 39 170 sel -1;
#X obj 13 172 bng 15 250 50 0 empty empty empty 17 7 0 10 -262144 -1
-1;
#X obj 134 443 dac~;
#X floatatom 156 386 5 0 0 0 - - -;
#X obj 156 362 env~;
#X floatatom 115 383 5 0 0 0 - - -;
#X obj 115 359 env~;
#X msg 102 296 vis 2 1;
#X msg 168 301 all kill;
#X msg 239 303 all 1;
#X obj 81 330 clone test-user 100;
#X text 3 142 oscid;
#X msg 124 176 0 xyz 0 0 0;
#X msg 125 197 0 act 0 0 0;
#X msg 126 220 0 kill 0;
#X msg 232 277 all 0;
#X obj 293 198 print full;
#X obj 324 304 print parsed;
#X connect 0 0 6 0;
#X connect 0 0 9 0;
#X connect 1 0 0 0;
#X connect 2 0 4 0;
#X connect 2 0 22 0;
#X connect 3 0 12 0;
#X connect 4 0 29 0;
#X connect 5 0 4 1;
#X connect 6 0 11 0;
#X connect 8 0 9 1;
#X connect 9 0 28 0;
#X connect 10 0 3 0;
#X connect 10 1 2 1;
#X connect 11 0 10 0;
#X connect 12 0 13 0;
#X connect 12 1 2 0;
#X connect 16 0 15 0;
#X connect 18 0 17 0;
#X connect 19 0 22 0;
#X connect 20 0 22 0;
#X connect 21 0 22 1;
#X connect 22 0 14 0;
#X connect 22 0 18 0;
#X connect 22 1 14 1;
#X connect 22 1 16 0;
#X connect 27 0 22 1;
