#N canvas 80 84 450 300 12;
#X obj 33 20 inlet;
#X obj 37 67 route xyz act;
#X obj 42 218 outlet;
#X obj 35 43 list trim;
#X obj 223 211 outlet;
#X obj 54 125 unpack f f f;
#X floatatom 54 147 5 0 0 0 - - -;
#X floatatom 95 148 5 0 0 0 - - -;
#X floatatom 139 152 5 0 0 0 - - -;
#X obj 186 121 unpack f f f;
#X floatatom 186 143 5 0 0 0 - - -;
#X floatatom 227 144 5 0 0 0 - - -;
#X floatatom 271 148 5 0 0 0 - - -;
#X connect 0 0 3 0;
#X connect 1 0 2 0;
#X connect 1 0 5 0;
#X connect 1 1 4 0;
#X connect 1 1 9 0;
#X connect 3 0 1 0;
#X connect 5 0 6 0;
#X connect 5 1 7 0;
#X connect 5 2 8 0;
#X connect 9 0 10 0;
#X connect 9 1 11 0;
#X connect 9 2 12 0;
