#N canvas 648 43 589 671 12;
#X obj 38 6 inlet;
#X obj 40 29 list trim;
#X obj 43 126 unpack f f f;
#X obj 191 120 unpack f f f;
#X floatatom 191 142 5 0 0 0 - - -;
#X floatatom 232 143 5 0 0 0 - - -;
#X floatatom 276 147 5 0 0 0 - - -;
#X obj 45 154 * 12;
#X obj 45 178 + 60;
#X obj 45 202 mtof;
#X obj 52 391 *~;
#X obj 92 210 pack f 10;
#X obj 92 234 line~;
#X obj 176 292 sig~ 1;
#X obj 176 316 -~;
#X obj 244 291 pack f 10;
#X obj 244 315 line~;
#X obj 59 481 *~;
#X obj 103 482 *~;
#X obj 55 601 outlet~;
#X obj 158 603 outlet~;
#X floatatom 297 180 5 0 0 0 - - -;
#X obj 13 239 phasor~;
#X obj 35 346 -~ 1;
#X obj 27 321 *~ 2;
#X obj 22 293 lop~ 100;
#X obj 157 61 route xyz act onoff;
#X obj 424 565 switch~;
#N canvas 0 22 450 547 switch 0;
#X obj 31 97 sel 0 1;
#X msg 239 220 1;
#X obj 202 184 t b b;
#X obj 68 320 line~;
#X obj 102 223 t b b;
#X msg 163 243 0;
#X obj 31 131 t b b;
#X msg 31 176 0;
#X obj 31 17 inlet;
#X obj 239 269 outlet switch;
#X obj 68 362 outlet~;
#X obj 31 73 change;
#X text 157 19 see fd_switch-help.pd;
#X obj 31 42 route float bang;
#X obj 102 254 del 1;
#X obj 102 279 pack 1 3;
#X obj 31 154 del 4;
#X obj 68 180 pack 0 3;
#X connect 0 0 6 0;
#X connect 0 1 2 0;
#X connect 1 0 9 0;
#X connect 2 0 4 0;
#X connect 2 1 1 0;
#X connect 3 0 10 0;
#X connect 4 0 14 0;
#X connect 4 1 5 0;
#X connect 5 0 3 0;
#X connect 6 0 16 0;
#X connect 6 1 17 0;
#X connect 7 0 9 0;
#X connect 8 0 13 0;
#X connect 11 0 0 0;
#X connect 13 0 11 0;
#X connect 14 0 15 0;
#X connect 15 0 3 0;
#X connect 16 0 7 0;
#X connect 17 0 3 0;
#X restore 399 519 pd switch;
#X obj 229 548 *~;
#X obj 315 533 *~;
#X obj 52 415 *~ 0.8;
#X obj 181 169 change;
#X obj 246 246 bng 15 250 50 0 empty empty empty 17 7 0 10 -262144
-1 -1;
#X obj 265 234 bng 15 250 50 0 empty empty empty 17 7 0 10 -262144
-1 -1;
#X obj 338 321 osc~ 1230;
#X obj 338 345 *~;
#X obj 348 225 random 50;
#X obj 348 249 + 60;
#X obj 181 192 t b f;
#X msg 266 368 1 \, 0 1000;
#X obj 266 392 vline~;
#X obj 266 416 *~;
#X msg 336 276 1230;
#X obj 379 273 mtof;
#X obj 337 473 *~ 0.1;
#X text 115 18 xpos \, ypos \, zpos \,;
#X text 311 30 turned \, shaken \, moved;
#X obj 377 48 tgl 15 0 empty empty empty 17 7 0 10 -262144 -1 -1 1
1;
#X obj 358 99 f;
#X obj 397 156 f;
#X obj 358 123 t f f b;
#X floatatom 364 185 5 0 0 0 - - -;
#X floatatom 424 59 5 0 0 0 - - -;
#X obj 364 161 !=;
#X obj 362 76 metro 2000;
#X obj 457 131 tgl 15 0 empty empty empty 17 7 0 10 -262144 -1 -1 1
1;
#X obj 212 211 sel 0 127;
#X obj 475 341 vline~;
#X obj 474 369 *~;
#X obj 475 393 *~;
#X obj 475 417 lop~ 100;
#X obj 475 441 *~;
#X obj 497 472 noise~;
#X obj 497 496 lop~ 200;
#X obj 497 520 hip~ 20;
#X obj 497 108 f;
#X obj 536 165 f;
#X obj 497 132 t f f b;
#X obj 494 60 metro 10;
#X obj 503 170 -;
#X floatatom 503 194 5 0 0 0 - - -;
#X obj 489 29 tgl 15 0 empty empty empty 17 7 0 10 -262144 -1 -1 1
1;
#X floatatom 536 35 5 0 0 0 - - -;
#X obj 201 458 pack f 100;
#X obj 201 482 line;
#X floatatom 201 506 5 0 0 0 - - -;
#X obj 197 434 mtof;
#X obj 199 367 * -128;
#X obj 199 391 + 128;
#X obj 503 217 change;
#X obj 503 265 sel 1 0;
#X obj 503 289 bng 15 250 50 0 empty empty empty 17 7 0 10 -262144
-1 -1;
#X obj 533 311 bng 15 250 50 0 empty empty empty 17 7 0 10 -262144
-1 -1;
#X obj 443 272 random 1000;
#X msg 443 296 1 \, 0 \$1;
#X obj 503 241 > 5;
#X obj 45 226 pack f 10;
#X obj 42 249 line~;
#X obj 7 212 *~ -1;
#X connect 0 0 1 0;
#X connect 1 0 26 0;
#X connect 2 0 7 0;
#X connect 2 1 11 0;
#X connect 2 1 78 0;
#X connect 2 2 15 0;
#X connect 3 0 4 0;
#X connect 3 0 32 0;
#X connect 3 1 5 0;
#X connect 3 1 66 1;
#X connect 3 2 6 0;
#X connect 3 2 49 1;
#X connect 7 0 8 0;
#X connect 8 0 9 0;
#X connect 9 0 87 0;
#X connect 10 0 31 0;
#X connect 11 0 12 0;
#X connect 12 0 10 1;
#X connect 13 0 14 0;
#X connect 14 0 18 1;
#X connect 15 0 16 0;
#X connect 16 0 14 1;
#X connect 16 0 17 1;
#X connect 17 0 29 0;
#X connect 18 0 30 0;
#X connect 22 0 25 0;
#X connect 23 0 10 0;
#X connect 24 0 23 0;
#X connect 25 0 24 0;
#X connect 26 0 2 0;
#X connect 26 1 3 0;
#X connect 26 2 48 0;
#X connect 26 2 56 0;
#X connect 28 0 30 1;
#X connect 28 0 29 1;
#X connect 28 1 27 0;
#X connect 29 0 19 0;
#X connect 30 0 20 0;
#X connect 31 0 17 0;
#X connect 31 0 18 0;
#X connect 32 0 39 0;
#X connect 33 0 43 0;
#X connect 34 0 37 0;
#X connect 35 0 36 1;
#X connect 36 0 45 0;
#X connect 37 0 38 0;
#X connect 38 0 44 0;
#X connect 39 0 40 0;
#X connect 39 1 57 0;
#X connect 40 0 41 0;
#X connect 41 0 42 0;
#X connect 41 0 42 1;
#X connect 42 0 36 0;
#X connect 43 0 35 0;
#X connect 44 0 35 0;
#X connect 45 0 29 0;
#X connect 45 0 30 0;
#X connect 48 0 55 0;
#X connect 48 0 72 0;
#X connect 49 0 51 0;
#X connect 50 0 54 1;
#X connect 51 0 54 0;
#X connect 51 1 50 1;
#X connect 51 2 50 0;
#X connect 53 0 55 1;
#X connect 54 0 52 0;
#X connect 54 0 56 0;
#X connect 55 0 49 0;
#X connect 56 0 28 0;
#X connect 57 0 33 0;
#X connect 57 1 34 0;
#X connect 58 0 59 0;
#X connect 58 0 59 1;
#X connect 59 0 60 0;
#X connect 59 0 60 1;
#X connect 60 0 61 0;
#X connect 61 0 62 0;
#X connect 62 0 30 0;
#X connect 62 0 29 0;
#X connect 63 0 64 0;
#X connect 64 0 65 0;
#X connect 65 0 62 1;
#X connect 66 0 68 0;
#X connect 67 0 70 1;
#X connect 68 0 70 0;
#X connect 68 1 67 1;
#X connect 68 2 67 0;
#X connect 69 0 66 0;
#X connect 70 0 71 0;
#X connect 71 0 80 0;
#X connect 72 0 69 0;
#X connect 73 0 69 1;
#X connect 74 0 75 0;
#X connect 75 0 64 1;
#X connect 75 0 76 0;
#X connect 77 0 74 0;
#X connect 78 0 79 0;
#X connect 79 0 77 0;
#X connect 80 0 86 0;
#X connect 81 0 82 0;
#X connect 81 1 83 0;
#X connect 82 0 84 0;
#X connect 84 0 85 0;
#X connect 85 0 58 0;
#X connect 86 0 81 0;
#X connect 87 0 88 0;
#X connect 88 0 89 0;
#X connect 89 0 22 0;
