#N canvas 1490 183 589 671 12;
#X obj 38 6 inlet;
#X obj 40 29 list trim;
#X obj 43 126 unpack f f f;
#X obj 191 120 unpack f f f;
#X floatatom 191 142 5 0 0 0 - - -;
#X floatatom 232 143 5 0 0 0 - - -;
#X floatatom 276 147 5 0 0 0 - - -;
#X obj 45 154 * 12;
#X obj 45 178 + 60;
#X obj 45 202 mtof;
#X obj 52 338 *~;
#X obj 92 210 pack f 10;
#X obj 92 234 line~;
#X obj 52 362 *~ 0.2;
#X obj 176 292 sig~ 1;
#X obj 176 316 -~;
#X obj 244 291 pack f 10;
#X obj 244 315 line~;
#X obj 59 481 *~;
#X obj 103 482 *~;
#X obj 55 601 outlet~;
#X obj 158 603 outlet~;
#X floatatom 297 180 5 0 0 0 - - -;
#X obj 23 228 phasor~;
#X obj 48 307 -~ 1;
#X obj 40 282 *~ 2;
#X obj 31 255 lop~ 100;
#X obj 14 204 * -1;
#X obj 157 61 route xyz act onoff;
#X obj 453 430 switch~;
#N canvas 0 22 450 547 switch 0;
#X obj 31 97 sel 0 1;
#X msg 239 220 1;
#X obj 202 184 t b b;
#X obj 68 320 line~;
#X obj 102 223 t b b;
#X msg 163 243 0;
#X obj 31 131 t b b;
#X msg 31 176 0;
#X obj 31 17 inlet;
#X obj 239 269 outlet switch;
#X obj 68 362 outlet~;
#X obj 31 73 change;
#X text 157 19 see fd_switch-help.pd;
#X obj 31 42 route float bang;
#X obj 102 254 del 1;
#X obj 102 279 pack 1 3;
#X obj 31 154 del 4;
#X obj 68 180 pack 0 3;
#X connect 0 0 6 0;
#X connect 0 1 2 0;
#X connect 1 0 9 0;
#X connect 2 0 4 0;
#X connect 2 1 1 0;
#X connect 3 0 10 0;
#X connect 4 0 14 0;
#X connect 4 1 5 0;
#X connect 5 0 3 0;
#X connect 6 0 16 0;
#X connect 6 1 17 0;
#X connect 7 0 9 0;
#X connect 8 0 13 0;
#X connect 11 0 0 0;
#X connect 13 0 11 0;
#X connect 14 0 15 0;
#X connect 15 0 3 0;
#X connect 16 0 7 0;
#X connect 17 0 3 0;
#X restore 433 341 pd switch;
#X obj 57 521 *~;
#X obj 129 527 *~;
#X connect 0 0 1 0;
#X connect 1 0 28 0;
#X connect 2 0 7 0;
#X connect 2 1 11 0;
#X connect 2 2 16 0;
#X connect 3 0 4 0;
#X connect 3 1 5 0;
#X connect 3 2 6 0;
#X connect 7 0 8 0;
#X connect 8 0 9 0;
#X connect 9 0 27 0;
#X connect 10 0 13 0;
#X connect 11 0 12 0;
#X connect 12 0 10 1;
#X connect 13 0 18 0;
#X connect 13 0 19 0;
#X connect 14 0 15 0;
#X connect 15 0 19 1;
#X connect 16 0 17 0;
#X connect 17 0 15 1;
#X connect 17 0 18 1;
#X connect 18 0 31 0;
#X connect 19 0 32 0;
#X connect 23 0 26 0;
#X connect 24 0 10 0;
#X connect 25 0 24 0;
#X connect 26 0 25 0;
#X connect 27 0 23 0;
#X connect 28 0 2 0;
#X connect 28 1 3 0;
#X connect 28 2 30 0;
#X connect 30 0 32 1;
#X connect 30 0 31 1;
#X connect 30 1 29 0;
#X connect 31 0 20 0;
#X connect 32 0 21 0;
